<?xml version="1.0" encoding="utf-8"?>
<!-- Generator: Adobe Illustrator 19.1.0, SVG Export Plug-In . SVG Version: 6.00 Build 0)  -->
<svg version="1.1" id="Layer_1" xmlns="http://www.w3.org/2000/svg" xmlns:xlink="http://www.w3.org/1999/xlink" x="0px" y="0px"
	 viewBox="0 0 110.7 87.5" style="enable-background:new 0 0 110.7 87.5;" xml:space="preserve">
<style type="text/css">
	.st0{fill:none;stroke:#010101;stroke-width:0.872;}
	.st1{fill:#767677;}
	.st2{clip-path:url(#SVGID_2_);}
	.st3{clip-path:url(#SVGID_4_);fill:none;stroke:#010101;stroke-width:0.872;}
	.st4{fill:#F4807A;}
	.st5{clip-path:url(#SVGID_6_);}
	.st6{clip-path:url(#SVGID_8_);fill:none;stroke:#010101;stroke-width:0.872;}
	.st7{fill:#010101;}
	.st8{font-family:'Helvetica-Bold';}
	.st9{font-size:11.9999px;}
	.st10{letter-spacing:53;}
</style>
<g>
	<line class="st0" x1="0.4" y1="0.8" x2="0.4" y2="87.3"/>
	<line class="st0" x1="0.1" y1="87" x2="48.6" y2="87"/>
	<rect x="13.1" y="44.4" class="st1" width="22.2" height="42.7"/>
	<g>
		<defs>
			<rect id="SVGID_1_" width="110.7" height="87.5"/>
		</defs>
		<clipPath id="SVGID_2_">
			<use xlink:href="#SVGID_1_"  style="overflow:visible;"/>
		</clipPath>
		<g class="st2">
			<defs>
				<rect id="SVGID_3_" x="-369.7" y="-54.3" width="595.3" height="790.9"/>
			</defs>
			<clipPath id="SVGID_4_">
				<use xlink:href="#SVGID_3_"  style="overflow:visible;"/>
			</clipPath>
			<rect x="13.1" y="44.4" class="st3" width="22.2" height="42.7"/>
		</g>
	</g>
	<path class="st4" d="M26.3,26.8c1,1,1,2.7,0,3.7c-1,1-2.7,1-3.7,0c-1-1-1-2.7,0-3.7C23.6,25.8,25.3,25.8,26.3,26.8"/>
	<line class="st0" x1="63.1" y1="0.8" x2="63.1" y2="87.3"/>
	<g>
		<defs>
			<rect id="SVGID_5_" width="110.7" height="87.5"/>
		</defs>
		<clipPath id="SVGID_6_">
			<use xlink:href="#SVGID_5_"  style="overflow:visible;"/>
		</clipPath>
		<g class="st5">
			<defs>
				<rect id="SVGID_7_" x="-369.7" y="-54.3" width="595.3" height="790.9"/>
			</defs>
			<clipPath id="SVGID_8_">
				<use xlink:href="#SVGID_7_"  style="overflow:visible;"/>
			</clipPath>
			<line class="st6" x1="62.1" y1="0.4" x2="110.7" y2="0.4"/>
		</g>
	</g>
	<rect x="75.4" y="0.8" class="st1" width="22.2" height="43.2"/>
	<rect x="75.4" y="0.8" class="st0" width="22.2" height="43.2"/>
	<path class="st4" d="M88.6,26.8c1,1,1,2.7,0,3.7c-1,1-2.7,1-3.7,0c-1-1-1-2.7,0-3.7C85.9,25.8,87.6,25.8,88.6,26.8"/>
	<text transform="matrix(1 0 0 1 4.7992 11.6606)"><tspan x="0" y="0" class="st7 st8 st9 st10">a</tspan><tspan x="60.5" y="0" class="st7 st8 st9">b</tspan></text>
	<path class="st4" d="M26.3,59.1c1,1,1,2.7,0,3.7c-1,1-2.7,1-3.7,0c-1-1-1-2.7,0-3.7C23.6,58.1,25.3,58.1,26.3,59.1"/>
	<path class="st4" d="M88.6,59.1c1,1,1,2.7,0,3.7c-1,1-2.7,1-3.7,0c-1-1-1-2.7,0-3.7S87.6,58.1,88.6,59.1"/>
</g>
</svg>
